{"title":"How It Ends 2018 1080p WEB-DL DD 5.1 x264 [MW]","magnet":"magnet:?xt=urn:btih:827555740bff57df7f4b7804b4eaa1b84731b8ef&dn=How+It+Ends+2018+1080p+WEB-DL+DD+5.1+x264+%5BMW%5D&tr=udp%3A%2F%2Ftracker.leechers-paradise.org%3A6969&tr=udp%3A%2F%2Fzer0day.ch%3A1337&tr=udp%3A%2F%2Fopen.demonii.com%3A1337&tr=udp%3A%2F%2Ftracker.coppersurfer.tk%3A6969&tr=udp%3A%2F%2Fexodus.desync.com%3A6969","uploader":"MFreaky","categoryP":"video","categoryS":"hd___movies","size":"1996652411","seeders":"2","leechers":"3","description":" <a href=\"https://pichub.site/image/azFaX\" rel=\"nofollow\" target=\"_NEW\">https://pichub.site/image/azFaX</a> <a href=\"\nhttps://pichub.site/image/azQ88\" rel=\"nofollow\" target=\"_NEW\">\nhttps://pichub.site/image/azQ88</a> <a href=\"\nhttps://pichub.site/image/azWlJ\" rel=\"nofollow\" target=\"_NEW\">\nhttps://pichub.site/image/azWlJ</a> <a href=\"\nhttps://pichub.site/image/azbq5\" rel=\"nofollow\" target=\"_NEW\">\nhttps://pichub.site/image/azbq5</a> <a href=\"\nhttps://pichub.site/image/azjyh\" rel=\"nofollow\" target=\"_NEW\">\nhttps://pichub.site/image/azjyh</a>\r\n\r\nGeneral\r\nFormat : Matroska\r\nFormat version : Version 4 / Version 2\r\nFile size : 1.86 GiB\r\nDuration : 1 h 53 min\r\nOverall bit rate : 2 351 kb/s\r\n\r\nVideo\r\nID : 1\r\nFormat : AVC\r\nFormat/Info : Advanced Video Codec\r\nFormat profile : High@L4.1\r\nFormat settings : CABAC / 4 Ref Frames\r\nFormat settings, CABAC : Yes\r\nFormat settings, RefFrames : 4 frames\r\nCodec ID : V_MPEG4/ISO/AVC\r\nDuration : 1 h 53 min\r\nBit rate : 2 000 kb/s\r\nWidth : 1 920 pixels\r\nHeight : 804 pixels\r\nDisplay aspect ratio : 2.40:1\r\nFrame rate mode : Constant\r\nFrame rate : 23.976 (24000/1001) FPS\r\nColor space : YUV\r\nChroma subsampling : 4:2:0\r\nBit depth : 8 bits\r\nScan type : Progressive\r\nBits/(Pixel*Frame) : 0.054\r\nStream size : 1.56 GiB (84%)\r\nWriting library : x264 core 155 r2901 7d0ff22\r\nDefault : Yes\r\nForced : No\r\n\r\nAudio\r\nID : 2\r\nFormat : AC-3\r\nFormat/Info : Audio Coding 3\r\nCodec ID : A_AC3\r\nDuration : 1 h 53 min\r\nBit rate mode : Constant\r\nBit rate : 384 kb/s\r\nChannel(s) : 6 channels\r\nChannel positions : Front: L C R, Side: L R, LFE\r\nSampling rate : 48.0 kHz\r\nFrame rate : 31.250 FPS (1536 SPF)\r\nBit depth : 16 bits\r\nCompression mode : Lossy\r\nStream size : 310 MiB (16%)\r\nLanguage : English\r\nService kind : Complete Main\r\nDefault : Yes\r\nForced : No\r\n\r\nText\r\nID : 3\r\nFormat : UTF-8\r\nCodec ID : S_TEXT/UTF8\r\nCodec ID/Info : UTF-8 Plain Text\r\nDuration : 1 h 44 min\r\nBit rate : 43 b/s\r\nCount of elements : 1040\r\nStream size : 33.4 KiB (0%)\r\nLanguage : English\r\nDefault : Yes\r\nForced : No","last_updated":"2018-07-14T12:02:09.995Z","parsed":{"xt":"urn:btih:827555740bff57df7f4b7804b4eaa1b84731b8ef","dn":"How It Ends 2018 1080p WEB-DL DD 5.1 x264 [MW]","tr":["udp://exodus.desync.com:6969","udp://open.demonii.com:1337","udp://tracker.coppersurfer.tk:6969","udp://tracker.leechers-paradise.org:6969","udp://zer0day.ch:1337"],"infoHash":"827555740bff57df7f4b7804b4eaa1b84731b8ef","infoHashBuffer":{"type":"Buffer","data":[130,117,85,116,11,255,87,223,127,75,120,4,180,234,161,184,71,49,184,239]},"name":"How It Ends 2018 1080p WEB-DL DD 5.1 x264 [MW]","announce":["udp://exodus.desync.com:6969","udp://open.demonii.com:1337","udp://tracker.coppersurfer.tk:6969","udp://tracker.leechers-paradise.org:6969","udp://zer0day.ch:1337"],"urlList":[]}}